<?xml version="1.0" encoding="UTF-8" standalone="no"?>
<!DOCTYPE svg PUBLIC "-//W3C//DTD SVG 1.1//EN" "http://www.w3.org/Graphics/SVG/1.1/DTD/svg11.dtd">
<svg xmlns="http://www.w3.org/2000/svg" version="1.1" viewBox="0.00 0.00 450.00 450.00">
<path fill="#66100f" d="
  M 293.58 67.76
  L 281.91 66.31
  A 1.45 1.44 -76.2 0 0 280.38 67.24
  L 255.73 132.51
  A 1.80 1.69 -16.6 0 1 255.45 132.99
  Q 254.22 134.49 253.35 133.88
  A 0.83 0.83 0.0 0 1 253.06 132.94
  L 276.38 66.27
  A 0.54 0.53 -77.4 0 0 275.94 65.56
  L 264.45 64.39
  A 1.04 1.04 0.0 0 0 263.34 65.17
  Q 254.79 99.92 246.53 132.65
  A 1.90 1.90 0.0 0 1 245.18 134.03
  Q 244.82 134.13 244.43 133.93
  A 0.67 0.66 20.5 0 1 244.09 133.20
  L 259.49 64.49
  Q 259.63 63.89 259.01 63.85
  L 248.26 63.27
  A 1.42 1.42 0.0 0 0 246.78 64.50
  L 237.96 133.17
  A 0.96 0.95 81.5 0 1 237.42 133.91
  Q 236.67 134.26 236.09 133.84
  A 0.98 0.97 20.6 0 1 235.68 132.94
  L 243.01 63.70
  A 0.85 0.85 0.0 0 0 242.08 62.76
  Q 237.29 63.22 232.02 62.47
  A 1.51 1.50 3.4 0 0 230.29 64.00
  C 230.62 78.55 230.16 93.18 230.12 107.69
  C 230.10 115.81 229.59 124.21 229.80 132.66
  Q 229.83 133.78 228.74 134.01
  Q 228.40 134.08 228.06 133.96
  A 0.86 0.85 9.4 0 1 227.49 133.17
  L 226.63 63.60
  A 1.00 1.00 0.0 0 0 225.60 62.61
  L 215.39 62.87
  A 1.24 1.24 0.0 0 0 214.19 64.24
  L 221.43 132.91
  A 0.99 0.97 64.8 0 1 221.16 133.68
  Q 220.78 134.07 220.36 134.03
  Q 219.23 133.91 219.09 132.79
  L 210.31 64.15
  A 1.02 1.01 -4.9 0 0 209.26 63.27
  L 198.73 63.76
  A 1.05 1.04 -7.7 0 0 197.76 65.03
  L 212.98 132.84
  Q 213.17 133.69 212.37 134.03
  Q 211.82 134.27 211.08 133.37
  Q 210.57 132.75 210.38 131.97
  L 193.74 65.29
  A 1.15 1.15 0.0 0 0 192.52 64.42
  L 182.15 65.40
  Q 180.51 65.55 181.05 67.11
  L 204.09 132.99
  Q 204.52 134.22 203.23 134.04
  L 202.82 133.98
  A 1.55 1.53 -6.1 0 1 201.59 133.00
  L 176.79 67.32
  Q 176.32 66.09 175.02 66.26
  L 164.01 67.64
  A 0.95 0.94 -16.7 0 0 163.28 68.99
  L 194.43 132.96
  Q 194.98 134.08 193.73 134.05
  L 193.36 134.04
  A 1.95 1.95 0.0 0 1 191.68 132.99
  L 158.63 69.12
  Q 158.28 68.44 157.53 68.57
  L 146.04 70.52
  A 0.87 0.86 89.3 0 1 145.04 69.54
  L 147.11 55.01
  A 0.83 0.82 89.0 0 0 146.15 54.08
  Q 115.86 59.60 86.68 68.28
  A 1.18 1.18 0.0 0 0 85.84 69.41
  L 85.82 132.96
  A 0.78 0.77 -0.0 0 1 85.04 133.73
  L 72.53 133.76
  A 0.53 0.52 89.5 0 1 72.00 133.23
  Q 72.00 97.93 71.95 64.00
  C 71.94 58.78 75.04 57.21 79.74 55.76
  Q 112.68 45.57 147.61 39.60
  A 1.60 1.59 -2.2 0 0 148.92 38.19
  L 150.25 23.72
  A 1.10 1.08 -3.7 0 1 151.11 22.76
  Q 179.73 16.80 208.02 14.91
  Q 218.10 14.24 227.97 14.27
  Q 266.57 14.38 304.51 22.75
  A 0.88 0.87 -0.4 0 1 305.17 23.39
  Q 305.60 25.08 305.72 26.66
  Q 306.18 32.53 306.94 38.55
  A 0.73 0.72 -89.0 0 0 307.53 39.17
  Q 344.20 45.23 378.28 56.52
  C 381.49 57.59 383.56 60.12 383.57 63.48
  Q 383.59 98.39 383.55 132.92
  Q 383.55 133.74 382.72 133.74
  L 370.26 133.76
  A 0.75 0.74 -90.0 0 1 369.52 133.01
  L 369.54 69.00
  A 0.88 0.87 8.6 0 0 368.92 68.17
  Q 339.80 59.14 309.52 53.71
  A 0.76 0.75 1.2 0 0 308.64 54.55
  L 310.66 69.76
  A 0.76 0.75 1.4 0 1 309.77 70.60
  L 299.81 68.73
  A 1.38 1.38 0.0 0 0 298.33 69.45
  Q 282.37 100.31 265.62 132.60
  Q 264.99 133.81 263.69 134.06
  Q 263.22 134.15 262.87 133.51
  A 0.91 0.90 43.3 0 1 262.84 132.68
  L 294.05 68.62
  A 0.60 0.60 0.0 0 0 293.58 67.76
  Z
  M 205.91 50.91
  C 206.88 52.39 207.98 54.13 210.09 53.01
  C 211.09 52.47 211.42 51.40 212.01 50.49
  A 1.04 1.04 0.0 0 1 213.71 50.44
  C 216.30 53.88 220.99 52.92 223.40 49.93
  Q 225.99 46.74 226.95 43.22
  A 0.58 0.57 -70.5 0 0 226.63 42.54
  L 226.31 42.40
  A 0.91 0.90 -66.4 0 0 225.09 42.88
  Q 222.06 50.38 217.89 49.25
  A 1.02 1.01 40.6 0 1 217.74 47.34
  Q 223.50 44.83 223.04 38.84
  C 222.91 37.24 221.78 35.71 220.04 35.91
  C 217.10 36.24 215.07 38.67 214.10 41.33
  Q 212.73 45.10 210.85 48.85
  Q 210.68 49.17 210.34 49.28
  Q 209.54 49.55 209.01 48.70
  A 1.27 1.27 0.0 0 1 208.83 47.92
  Q 210.21 35.80 216.07 26.81
  Q 217.57 24.51 215.62 22.58
  L 215.30 22.26
  Q 213.27 20.24 212.03 22.83
  Q 208.41 30.39 206.51 37.82
  A 1.04 1.03 11.2 0 1 205.36 38.58
  C 199.50 37.74 197.18 44.10 196.77 48.73
  C 196.60 50.58 196.83 53.16 198.85 53.94
  C 201.65 55.03 203.50 52.99 204.92 50.90
  Q 205.42 50.16 205.91 50.91
  Z
  M 190.11 52.34
  L 189.33 51.74
  Q 188.79 51.31 188.43 51.90
  Q 186.97 54.23 188.99 55.54
  C 193.10 58.23 196.79 53.36 195.46 49.30
  Q 193.80 44.28 194.98 39.07
  A 1.22 1.22 0.0 0 0 193.68 37.59
  Q 189.25 37.96 189.16 41.57
  C 189.06 45.08 186.92 48.67 185.08 51.58
  C 184.15 53.05 182.22 54.16 180.47 53.77
  Q 179.68 53.59 179.50 52.82
  Q 179.38 52.25 179.91 51.99
  Q 185.05 49.55 185.49 44.59
  C 185.72 42.03 183.52 39.51 180.81 40.83
  Q 177.76 42.31 176.66 45.08
  Q 175.22 48.72 173.61 52.58
  Q 173.21 53.54 172.23 53.79
  A 0.91 0.91 0.0 0 1 171.10 52.85
  C 171.64 44.93 174.42 37.89 178.48 30.97
  A 2.96 2.96 0.0 0 0 178.03 27.39
  L 177.46 26.81
  Q 175.61 24.93 174.41 27.28
  Q 170.50 34.97 168.83 42.41
  Q 168.68 43.06 168.01 43.04
  L 165.62 42.94
  Q 165.09 42.92 164.63 43.18
  Q 160.40 45.56 159.29 51.16
  C 158.80 53.63 158.28 57.17 161.02 58.54
  C 163.77 59.92 165.33 57.68 166.97 55.66
  Q 167.63 54.85 168.23 55.71
  C 171.02 59.68 172.60 57.55 174.51 54.89
  Q 175.00 54.21 175.56 54.82
  C 180.62 60.34 186.91 55.06 188.61 49.67
  Q 188.84 48.93 189.56 48.72
  Q 190.21 48.52 190.29 49.20
  L 190.61 52.06
  Q 190.70 52.80 190.11 52.34
  Z
  M 238.46 35.32
  L 237.48 49.79
  Q 237.42 50.53 236.69 50.68
  L 234.13 51.18
  A 1.22 1.22 0.0 0 0 233.17 52.62
  Q 233.40 53.81 234.55 53.87
  Q 239.48 54.15 244.60 54.25
  A 1.10 1.09 -21.9 0 0 245.40 52.38
  Q 244.53 51.51 243.08 51.21
  A 1.01 1.01 0.0 0 1 242.28 50.15
  L 243.66 29.69
  A 1.21 1.20 81.2 0 0 242.02 28.48
  Q 238.07 30.05 234.55 32.70
  A 1.14 1.13 49.8 0 0 234.41 34.38
  C 235.23 35.26 236.70 34.71 237.69 34.59
  Q 238.52 34.49 238.46 35.32
  Z
  M 273.21 45.34
  A 0.29 0.29 0.0 0 1 273.53 45.76
  Q 271.05 50.76 266.01 53.62
  A 1.47 1.46 82.9 0 0 265.32 54.51
  Q 264.92 55.96 265.64 56.18
  Q 267.05 56.62 268.11 56.08
  C 275.54 52.28 282.30 43.45 278.66 34.92
  C 275.86 28.37 266.31 29.03 263.66 35.39
  A 0.35 0.34 47.4 0 1 263.01 35.36
  Q 261.06 29.25 254.89 29.26
  C 245.69 29.28 243.42 42.91 253.48 44.51
  C 254.68 44.70 255.84 44.35 257.02 44.14
  A 0.32 0.31 -81.9 0 1 257.35 44.59
  Q 254.83 49.65 250.05 52.46
  A 1.27 1.19 -84.9 0 0 249.66 52.81
  Q 247.81 55.36 251.42 55.07
  A 1.71 1.65 27.7 0 0 252.04 54.89
  Q 260.87 50.19 263.09 41.38
  Q 263.22 40.86 263.49 41.33
  Q 266.59 46.71 273.21 45.34
  Z
  M 292.40 43.47
  Q 291.61 42.79 292.35 42.04
  Q 295.73 38.66 294.32 35.28
  C 292.72 31.42 288.07 30.94 284.36 31.46
  C 281.09 31.93 280.50 34.79 281.20 37.50
  A 1.16 1.16 0.0 0 0 283.28 37.87
  L 284.83 35.61
  A 1.27 1.26 -79.0 0 1 285.59 35.09
  C 289.94 34.04 291.12 39.00 287.88 40.98
  Q 286.64 41.74 285.08 42.01
  Q 284.05 42.18 283.98 43.30
  A 1.10 1.09 -74.4 0 0 284.57 44.35
  C 286.00 45.10 287.79 45.57 288.83 46.82
  C 292.21 50.88 287.78 55.63 283.31 53.31
  Q 282.82 53.05 282.64 52.53
  L 281.61 49.47
  A 0.87 0.87 0.0 0 0 280.25 49.06
  C 279.04 50.01 279.11 51.59 278.89 52.96
  Q 278.26 56.80 282.79 57.39
  C 287.99 58.07 293.10 56.04 294.56 50.80
  Q 295.79 46.41 292.40 43.47
  Z"
/>
<ellipse fill="#66100f" cx="0.00" cy="0.00" transform="translate(255.07,37.07) rotate(72.7)" rx="4.23" ry="3.32"/>
<ellipse fill="#66100f" cx="0.00" cy="0.00" transform="translate(271.26,38.15) rotate(73.5)" rx="4.28" ry="3.31"/>
<ellipse fill="#66100f" cx="0.00" cy="0.00" transform="translate(219.40,42.06) rotate(118.8)" rx="2.58" ry="1.02"/>
<ellipse fill="#66100f" cx="0.00" cy="0.00" transform="translate(203.10,46.54) rotate(109.3)" rx="4.90" ry="1.49"/>
<ellipse fill="#66100f" cx="0.00" cy="0.00" transform="translate(181.72,46.43) rotate(119.8)" rx="2.66" ry="0.99"/>
<ellipse fill="#66100f" cx="0.00" cy="0.00" transform="translate(165.35,51.10) rotate(108.7)" rx="4.88" ry="1.47"/>
<path fill="#66100f" d="
  M 316.49 66.50
  L 320.12 67.15
  A 0.57 0.57 0.0 0 1 320.49 68.03
  L 276.17 133.58
  A 0.57 0.57 0.0 0 1 275.75 133.83
  L 273.99 133.97
  A 0.57 0.57 0.0 0 1 273.47 133.09
  L 315.90 66.75
  A 0.57 0.57 0.0 0 1 316.49 66.50
  Z"
/>
<path fill="#66100f" d="
  M 141.40 67.02
  L 183.54 132.89
  A 0.83 0.83 0.0 0 1 182.50 134.10
  L 181.03 133.45
  A 0.83 0.83 0.0 0 1 180.68 133.15
  L 136.89 68.42
  A 0.83 0.83 0.0 0 1 137.45 67.14
  L 140.57 66.64
  A 0.83 0.83 0.0 0 1 141.40 67.02
  Z"
/>
<path fill="#66100f" d="
  M 169.53 134.01
  A 4.37 4.01 73.2 0 1 167.15 132.60
  L 116.05 73.27
  Q 115.12 72.18 116.51 71.85
  L 118.84 71.28
  Q 120.28 70.93 121.21 72.08
  L 170.92 132.87
  A 0.68 0.68 0.0 0 1 170.60 133.95
  Q 170.08 134.11 169.53 134.01
  Z"
/>
<path fill="#66100f" d="
  M 286.24 132.82
  L 336.55 71.30
  A 0.80 0.80 0.0 0 1 337.36 71.03
  L 340.76 71.84
  A 0.80 0.80 0.0 0 1 341.17 73.14
  L 289.42 133.26
  A 0.80 0.80 0.0 0 1 289.05 133.51
  L 287.09 134.09
  A 0.80 0.80 0.0 0 1 286.24 132.82
  Z"
/>
<path fill="#66100f" d="
  M 151.90 133.46
  L 98.56 84.47
  A 0.57 0.57 0.0 0 1 98.38 84.07
  L 98.17 78.64
  A 0.57 0.57 0.0 0 1 99.14 78.21
  L 155.76 133.08
  A 0.57 0.57 0.0 0 1 155.28 134.05
  L 152.20 133.61
  A 0.57 0.57 0.0 0 1 151.90 133.46
  Z"
/>
<path fill="#66100f" d="
  M 301.51 132.88
  L 356.61 79.60
  A 0.70 0.70 0.0 0 1 357.79 80.15
  L 357.47 85.20
  A 0.70 0.70 0.0 0 1 357.24 85.67
  L 305.42 133.33
  A 0.70 0.70 0.0 0 1 305.08 133.50
  L 302.13 134.07
  A 0.70 0.70 0.0 0 1 301.51 132.88
  Z"
/>
<path fill="#66100f" d="
  M 131.59 133.64
  L 98.57 109.67
  A 0.50 0.50 0.0 0 1 98.36 109.29
  L 98.21 104.91
  A 0.50 0.50 0.0 0 1 99.01 104.49
  L 136.62 133.21
  A 0.50 0.50 0.0 0 1 136.27 134.11
  L 131.84 133.73
  A 0.50 0.50 0.0 0 1 131.59 133.64
  Z"
/>
<path fill="#66100f" d="
  M 320.58 133.16
  L 356.94 105.39
  A 0.45 0.45 0.0 0 1 357.66 105.77
  L 357.49 110.24
  A 0.45 0.45 0.0 0 1 357.30 110.59
  L 325.63 133.55
  A 0.45 0.45 0.0 0 1 325.40 133.64
  L 320.89 133.97
  A 0.45 0.45 0.0 0 1 320.58 133.16
  Z"
/>
<path fill="#66100f" d="
  M 103.04 133.64
  L 98.45 131.00
  A 0.34 0.34 0.0 0 1 98.28 130.70
  L 98.27 126.62
  A 0.34 0.34 0.0 0 1 98.79 126.33
  L 110.56 133.42
  A 0.34 0.34 0.0 0 1 110.36 134.05
  L 103.19 133.68
  A 0.34 0.34 0.0 0 1 103.04 133.64
  Z"
/>
<path fill="#66100f" d="
  M 346.76 133.27
  L 356.97 127.17
  A 0.44 0.44 0.0 0 1 357.63 127.56
  L 357.55 131.17
  A 0.44 0.44 0.0 0 1 357.36 131.52
  L 354.63 133.42
  A 0.44 0.44 0.0 0 1 354.41 133.50
  L 347.03 134.09
  A 0.44 0.44 0.0 0 1 346.76 133.27
  Z"
/>
<path fill="#66100f" d="
  M 23.19 209.39
  Q 37.95 183.71 51.39 159.60
  C 54.67 153.72 59.25 150.19 66.15 150.19
  Q 231.20 150.17 387.67 150.20
  C 394.84 150.20 399.15 153.88 402.64 160.06
  Q 417.96 187.22 431.24 210.68
  Q 434.42 216.28 433.57 222.18
  Q 432.99 226.22 429.69 231.54
  Q 415.95 253.73 402.68 276.28
  C 398.91 282.68 394.63 286.01 387.13 286.01
  Q 225.55 286.00 65.46 285.99
  C 59.47 285.99 54.89 282.49 51.89 277.46
  Q 37.22 252.92 22.87 229.40
  C 18.93 222.95 19.45 215.90 23.19 209.39
  Z
  M 114.90 262.82
  C 111.38 262.21 110.26 259.13 110.24 255.99
  Q 110.02 222.14 110.12 181.53
  C 110.13 177.02 110.17 172.08 115.34 171.26
  Q 119.45 170.61 123.44 170.17
  A 1.59 1.59 0.0 0 0 124.85 168.60
  L 124.87 160.42
  A 0.96 0.95 90.0 0 0 123.92 159.46
  L 70.82 159.45
  A 0.90 0.90 0.0 0 0 69.92 160.36
  L 69.93 168.99
  Q 69.93 169.98 70.91 170.12
  Q 75.00 170.69 79.07 171.17
  C 84.88 171.85 84.58 176.47 84.60 181.53
  Q 84.77 214.36 84.66 251.89
  C 84.65 255.95 85.27 261.75 80.04 262.80
  Q 75.52 263.70 70.92 263.97
  A 1.03 1.02 88.2 0 0 69.96 265.00
  L 69.94 273.85
  Q 69.94 274.76 70.85 274.76
  L 123.70 274.72
  A 1.17 1.16 90.0 0 0 124.86 273.55
  L 124.87 265.12
  A 1.11 1.09 -87.4 0 0 123.88 264.02
  Q 119.45 263.61 114.90 262.82
  Z
  M 184.80 229.28
  C 189.60 230.71 194.13 231.81 199.20 231.41
  C 221.20 229.69 238.42 216.08 237.60 192.39
  C 237.02 175.87 226.34 164.58 210.57 161.30
  Q 202.22 159.57 195.75 159.54
  Q 170.32 159.45 144.56 159.45
  A 0.82 0.81 90.0 0 0 143.75 160.27
  L 143.74 169.01
  Q 143.74 169.87 144.59 170.01
  Q 148.21 170.61 152.35 170.92
  Q 158.44 171.38 158.46 178.02
  Q 158.59 218.37 158.46 256.36
  Q 158.43 262.35 152.49 263.07
  Q 148.51 263.55 144.50 264.12
  Q 143.74 264.23 143.75 264.98
  L 143.76 273.74
  Q 143.76 274.72 144.74 274.72
  L 199.01 274.74
  A 1.00 1.00 0.0 0 0 200.01 273.74
  L 200.02 264.71
  A 0.64 0.64 0.0 0 0 199.43 264.06
  Q 194.44 263.58 189.64 262.91
  C 184.83 262.24 183.92 258.71 183.92 254.56
  Q 183.91 242.38 183.89 229.96
  Q 183.89 229.01 184.80 229.28
  Z
  M 346.11 195.15
  Q 345.89 200.98 346.09 208.04
  C 346.50 222.68 346.38 237.19 346.22 252.21
  Q 346.19 254.94 345.85 258.15
  Q 345.41 262.22 341.11 263.02
  Q 337.30 263.73 333.54 263.96
  Q 332.31 264.03 332.31 265.26
  L 332.28 273.76
  A 0.99 0.98 90.0 0 0 333.26 274.75
  L 385.50 274.75
  A 1.01 1.01 0.0 0 0 386.51 273.75
  L 386.55 264.91
  A 0.89 0.88 -87.1 0 0 385.76 264.03
  Q 381.71 263.62 377.50 262.89
  C 372.66 262.05 371.75 258.16 371.66 253.92
  Q 370.84 214.25 370.32 181.80
  C 370.25 177.40 370.07 172.50 375.15 171.51
  Q 379.73 170.62 384.32 170.26
  A 1.28 1.27 -2.5 0 0 385.49 168.99
  L 385.53 160.24
  A 0.81 0.80 90.0 0 0 384.73 159.43
  L 349.18 159.46
  Q 347.96 159.46 347.46 160.57
  L 314.56 233.76
  A 0.43 0.43 0.0 0 1 313.77 233.75
  L 281.61 160.16
  A 1.15 1.14 -11.8 0 0 280.56 159.48
  L 244.32 159.45
  A 1.08 1.08 0.0 0 0 243.24 160.52
  L 243.23 169.05
  A 1.05 1.05 0.0 0 0 244.13 170.09
  C 249.25 170.79 259.40 170.74 258.88 178.56
  Q 256.26 218.15 253.83 249.08
  Q 253.58 252.26 252.91 255.88
  C 251.57 263.13 245.11 263.61 239.22 263.93
  A 1.11 1.11 0.0 0 0 238.17 265.04
  L 238.11 273.80
  A 0.95 0.94 -90.0 0 0 239.05 274.75
  L 283.01 274.72
  A 1.24 1.23 -89.8 0 0 284.24 273.49
  L 284.29 264.76
  A 0.74 0.74 0.0 0 0 283.59 264.02
  Q 278.76 263.74 273.75 262.59
  Q 268.41 261.36 268.31 256.00
  Q 268.21 250.46 268.35 245.25
  Q 268.96 222.54 270.01 194.48
  A 0.22 0.22 0.0 0 1 270.35 194.30
  Q 270.76 194.55 270.95 195.00
  Q 287.06 234.99 302.36 273.95
  A 1.26 1.25 78.7 0 0 303.54 274.74
  L 309.51 274.72
  A 2.09 2.09 0.0 0 0 311.41 273.46
  L 345.19 194.95
  Q 346.20 192.58 346.11 195.15
  Z"
/>
<path fill="#66100f" d="
  M 181.48 173.94
  A 5.33 5.33 0.0 0 1 186.82 168.62
  L 192.39 168.63
  A 23.19 21.58 -89.9 0 1 213.93 191.86
  L 213.91 198.00
  A 23.19 21.58 -89.9 0 1 192.29 221.15
  L 186.72 221.14
  A 5.33 5.33 0.0 0 1 181.40 215.80
  L 181.48 173.94
  Z"
/>
<path fill="#66100f" d="
  M 357.82 311.90
  Q 359.38 309.06 360.88 306.16
  A 0.96 0.95 -75.9 0 1 361.72 305.65
  L 375.05 305.68
  Q 376.21 305.68 375.77 306.75
  C 346.38 378.58 261.24 393.74 193.23 384.75
  C 144.11 378.25 100.05 353.72 80.22 306.61
  A 0.55 0.54 -11.3 0 1 80.73 305.86
  L 94.42 305.86
  A 1.38 1.36 76.6 0 1 95.64 306.62
  C 116.95 349.87 161.49 368.53 207.55 372.23
  Q 243.48 375.12 276.91 368.01
  C 310.42 360.87 341.15 342.19 357.82 311.90
  Z"
/>
<path fill="#66100f" d="
  M 236.3570 315.7353
  A 8.12 7.42 -5.9 0 1 229.0427 323.9507
  A 8.12 7.42 -5.9 0 1 220.2030 317.4047
  A 8.12 7.42 -5.9 0 1 227.5173 309.1893
  A 8.12 7.42 -5.9 0 1 236.3570 315.7353
  Z
  M 229.6164 322.7549
  A 6.32 5.07 77.7 0 0 233.2236 315.4999
  A 6.32 5.07 77.7 0 0 226.9236 310.4051
  A 6.32 5.07 77.7 0 0 223.3164 317.6601
  A 6.32 5.07 77.7 0 0 229.6164 322.7549
  Z"
/>
<path fill="#2f1313" d="
  M 143.63 318.74
  Q 143.97 318.52 143.97 318.09
  Q 143.94 313.87 143.35 310.13
  Q 143.28 309.68 143.74 309.69
  L 145.47 309.75
  Q 145.89 309.76 145.83 310.18
  Q 145.02 316.39 145.29 323.04
  Q 145.31 323.70 144.44 323.80
  A 0.52 0.52 0.0 0 1 144.00 323.64
  L 135.47 314.97
  Q 134.06 313.54 134.04 315.54
  C 134.01 317.45 133.63 321.75 135.43 323.15
  Q 136.15 323.71 135.24 323.73
  L 131.77 323.78
  Q 130.93 323.79 131.55 323.23
  Q 132.67 322.22 132.64 320.78
  Q 132.53 315.88 132.64 310.26
  Q 132.66 309.39 133.47 309.70
  Q 133.92 309.87 134.25 310.19
  Q 138.44 314.21 142.78 318.64
  A 0.69 0.68 51.3 0 0 143.63 318.74
  Z"
/>
<path fill="#66100f" d="
  M 166.97 310.93
  A 1.34 1.32 -14.1 0 0 166.22 312.17
  Q 166.34 316.24 166.25 320.35
  C 166.23 321.43 166.67 322.47 167.45 323.22
  Q 168.06 323.80 167.22 323.79
  L 163.02 323.77
  Q 162.29 323.77 162.68 323.15
  C 163.22 322.27 163.52 321.26 163.50 320.23
  Q 163.45 316.26 163.57 312.05
  A 1.38 1.36 85.0 0 0 161.93 310.66
  L 157.02 311.67
  Q 156.46 311.78 156.00 311.45
  C 154.73 310.52 153.43 309.40 152.03 311.09
  A 1.98 1.98 0.0 0 0 152.52 314.05
  C 154.34 315.16 156.97 316.36 157.37 318.69
  C 158.15 323.31 153.73 324.44 150.20 323.83
  C 148.94 323.62 148.54 322.26 148.82 321.20
  Q 149.01 320.53 149.47 321.05
  Q 150.31 321.99 151.37 322.53
  Q 153.04 323.38 154.47 322.11
  Q 154.57 322.02 154.65 321.90
  Q 155.79 320.09 154.26 318.73
  C 152.67 317.30 150.20 316.53 149.39 314.43
  Q 148.32 311.69 151.03 310.12
  C 152.78 309.10 155.05 309.27 156.87 309.99
  C 158.30 310.56 159.57 309.51 161.14 309.57
  Q 166.17 309.76 170.69 309.57
  A 0.85 0.85 0.0 0 1 171.56 310.28
  Q 171.69 311.09 170.90 311.33
  A 1.69 1.68 52.9 0 1 169.49 311.13
  Q 168.25 310.32 166.97 310.93
  Z"
/>
<path fill="#66100f" d="
  M 176.49 320.95
  C 176.53 321.83 176.99 322.71 177.67 323.26
  Q 178.32 323.79 177.48 323.79
  L 173.25 323.80
  A 0.46 0.46 0.0 0 1 172.88 323.06
  Q 173.51 322.25 173.58 321.27
  Q 173.99 316.09 173.42 310.32
  Q 173.35 309.66 174.01 309.64
  L 176.08 309.56
  Q 176.88 309.53 176.79 310.32
  Q 176.21 315.30 176.49 320.95
  Z"
/>
<path fill="#66100f" d="
  M 193.52 312.33
  Q 193.62 311.19 192.48 311.23
  Q 190.56 311.30 188.76 310.86
  Q 186.71 310.35 186.70 312.46
  L 186.64 320.58
  A 2.02 2.00 -62.7 0 0 187.02 321.79
  L 188.04 323.22
  Q 188.42 323.75 187.77 323.75
  L 183.79 323.75
  A 0.48 0.48 0.0 0 1 183.34 323.10
  L 183.80 321.89
  Q 183.98 321.40 183.99 320.88
  L 184.09 312.13
  A 1.47 1.47 0.0 0 0 182.24 310.69
  L 179.90 311.32
  Q 179.43 311.45 178.98 311.27
  Q 178.35 311.03 178.54 310.17
  A 0.73 0.73 0.0 0 1 179.25 309.60
  L 196.48 309.78
  Q 196.89 309.78 196.79 310.18
  Q 195.85 313.92 196.30 318.99
  Q 196.63 322.77 200.47 322.45
  Q 203.22 322.22 203.56 319.25
  Q 204.13 314.33 203.05 310.27
  Q 202.91 309.73 203.46 309.73
  L 219.43 309.63
  Q 219.91 309.62 220.09 310.07
  Q 220.29 310.55 220.15 311.08
  Q 219.97 311.75 219.32 311.48
  L 217.60 310.77
  A 1.75 1.75 0.0 0 0 215.18 312.40
  L 215.21 320.94
  Q 215.21 321.73 215.67 322.37
  L 216.22 323.16
  Q 216.64 323.76 215.90 323.75
  L 212.03 323.73
  Q 211.17 323.72 211.59 322.98
  C 213.10 320.30 212.39 315.22 212.43 312.21
  Q 212.45 310.41 210.69 310.80
  Q 208.80 311.22 207.00 311.06
  Q 205.72 310.94 205.72 312.23
  C 205.71 317.25 206.70 324.08 199.22 323.96
  Q 193.87 323.88 193.49 318.60
  Q 193.25 315.24 193.52 312.33
  Z"
/>
<path fill="#66100f" d="
  M 247.39 311.65
  Q 247.00 314.03 247.52 316.77
  Q 247.62 317.26 247.49 317.75
  Q 246.60 321.09 248.67 323.30
  Q 249.11 323.77 248.47 323.76
  L 244.70 323.73
  Q 243.72 323.72 244.13 322.83
  C 244.39 322.27 244.62 321.77 244.67 321.13
  Q 245.14 315.25 244.24 310.17
  Q 244.12 309.53 244.77 309.61
  Q 247.23 309.92 250.01 309.72
  C 252.63 309.52 254.45 311.15 253.77 313.89
  Q 253.00 316.96 249.84 317.50
  Q 248.88 317.66 249.55 316.96
  Q 253.24 313.14 249.42 310.73
  A 1.34 1.34 0.0 0 0 247.39 311.65
  Z"
/>
<path fill="#66100f" d="
  M 259.21 319.04
  Q 258.99 321.40 260.46 323.20
  Q 260.89 323.72 260.21 323.73
  L 256.55 323.76
  Q 255.70 323.77 256.04 322.99
  C 256.31 322.36 256.62 321.76 256.66 321.06
  Q 257.02 315.75 256.39 310.29
  Q 256.33 309.72 256.89 309.71
  Q 260.02 309.66 262.79 309.81
  Q 266.43 310.00 265.85 313.73
  C 265.63 315.10 264.54 315.57 263.96 316.72
  Q 263.73 317.19 264.01 317.63
  Q 266.08 320.83 268.67 322.70
  A 1.29 1.28 -70.7 0 0 270.70 321.72
  Q 271.01 315.94 270.40 310.14
  Q 270.34 309.58 270.91 309.62
  L 273.75 309.83
  Q 274.53 309.88 273.95 310.42
  Q 273.35 310.96 273.33 311.77
  Q 273.19 316.24 273.24 320.73
  Q 273.26 322.29 274.54 323.28
  Q 275.27 323.86 274.34 323.78
  Q 271.49 323.52 268.45 323.72
  C 264.81 323.95 263.39 320.70 261.55 318.35
  A 1.31 1.31 0.0 0 0 259.21 319.04
  Z
  M 259.25 311.64
  L 259.33 316.00
  A 0.87 0.87 0.0 0 0 260.21 316.85
  L 260.84 316.84
  A 2.88 2.72 89.0 0 0 263.51 313.91
  L 263.51 313.57
  A 2.88 2.72 89.0 0 0 260.74 310.74
  L 260.11 310.75
  A 0.87 0.87 0.0 0 0 259.25 311.64
  Z"
/>
<path fill="#2f1313" d="
  M 282.49 318.81
  A 0.64 0.64 0.0 0 0 283.67 318.77
  L 286.95 310.13
  Q 287.23 309.39 288.01 309.44
  L 288.53 309.48
  Q 289.31 309.53 288.99 310.25
  L 283.20 323.03
  A 0.83 0.83 0.0 0 1 281.89 323.30
  Q 281.33 322.79 281.06 322.05
  Q 278.76 315.93 275.84 309.94
  Q 275.73 309.72 275.97 309.72
  L 279.25 309.74
  Q 279.47 309.74 279.52 309.96
  Q 280.60 314.59 282.49 318.81
  Z"
/>
<path fill="#2f1313" d="
  M 294.44 318.90
  Q 291.59 318.48 290.35 320.20
  Q 289.97 320.73 290.04 321.38
  L 290.22 323.11
  Q 290.29 323.76 289.64 323.77
  L 286.73 323.81
  A 0.39 0.39 0.0 0 1 286.48 323.12
  Q 287.86 321.96 288.56 320.40
  Q 290.88 315.32 293.18 310.02
  A 0.81 0.81 0.0 0 1 294.67 310.03
  Q 296.61 314.80 298.65 319.53
  Q 299.63 321.79 300.91 323.16
  Q 301.31 323.59 300.73 323.70
  Q 299.01 324.00 297.56 323.61
  A 0.86 0.86 0.0 0 1 296.94 322.94
  C 296.65 321.46 296.26 319.17 294.44 318.90
  Z
  M 293.4120 317.9770
  A 1.72 1.41 86.6 0 0 294.7175 316.1764
  A 1.72 1.41 86.6 0 0 293.2080 314.5430
  A 1.72 1.41 86.6 0 0 291.9025 316.3436
  A 1.72 1.41 86.6 0 0 293.4120 317.9770
  Z"
/>
<path fill="#2f1313" d="
  M 333.9428 315.5506
  A 8.07 7.41 -7.4 0 1 326.8944 323.9383
  A 8.07 7.41 -7.4 0 1 317.9372 317.6294
  A 8.07 7.41 -7.4 0 1 324.9856 309.2417
  A 8.07 7.41 -7.4 0 1 333.9428 315.5506
  Z
  M 327.1921 322.7961
  A 6.39 5.07 78.7 0 0 330.9117 315.5366
  A 6.39 5.07 78.7 0 0 324.6879 310.2639
  A 6.39 5.07 78.7 0 0 320.9683 317.5234
  A 6.39 5.07 78.7 0 0 327.1921 322.7961
  Z"
/>
<path fill="#66100f" d="
  M 128.71 322.98
  Q 128.98 323.05 129.18 323.22
  Q 129.83 323.75 128.99 323.75
  L 124.74 323.74
  Q 124.02 323.74 124.34 323.09
  C 124.68 322.39 124.97 321.71 125.03 320.93
  Q 125.39 315.47 124.77 310.00
  Q 124.73 309.73 125.01 309.73
  L 127.99 309.74
  A 0.27 0.27 0.0 0 1 128.25 310.05
  Q 127.32 315.92 128.03 322.20
  A 0.91 0.90 -86.4 0 0 128.71 322.98
  Z"
/>
<path fill="#2f1313" d="
  M 302.41 322.47
  A 1.58 1.57 66.0 0 0 302.79 321.47
  Q 302.86 316.73 302.79 312.43
  Q 302.77 311.34 302.29 310.29
  Q 301.99 309.64 302.70 309.68
  C 308.58 310.03 317.55 307.83 316.59 317.60
  C 315.89 324.80 307.49 324.28 302.29 323.53
  Q 301.60 323.43 302.05 322.89
  L 302.41 322.47
  Z
  M 305.17 312.89
  L 305.58 320.98
  A 2.05 2.05 0.0 0 0 307.73 322.92
  L 308.66 322.87
  A 5.93 5.82 87.1 0 0 314.17 316.66
  L 314.16 316.32
  A 5.93 5.82 87.1 0 0 308.04 310.69
  L 307.11 310.74
  A 2.05 2.05 0.0 0 0 305.17 312.89
  Z"
/>
<path fill="#66100f" d="
  M 280.8199 340.2835
  A 8.12 7.39 -5.7 0 1 273.4740 348.4435
  A 8.12 7.39 -5.7 0 1 264.6601 341.8965
  A 8.12 7.39 -5.7 0 1 272.0060 333.7365
  A 8.12 7.39 -5.7 0 1 280.8199 340.2835
  Z
  M 273.9755 347.2693
  A 6.29 5.07 78.3 0 0 277.6647 340.0819
  A 6.29 5.07 78.3 0 0 271.4245 334.9507
  A 6.29 5.07 78.3 0 0 267.7353 342.1381
  A 6.29 5.07 78.3 0 0 273.9755 347.2693
  Z"
/>
<path fill="#66100f" d="
  M 178.03 334.34
  A 0.29 0.29 0.0 0 1 178.32 334.05
  L 184.61 333.94
  A 7.44 6.63 -1.0 0 1 192.16 340.44
  L 192.18 341.46
  A 7.44 6.63 -1.0 0 1 184.85 348.22
  L 178.57 348.33
  A 0.29 0.29 0.0 0 1 178.27 348.04
  L 178.03 334.34
  Z
  M 180.89 337.10
  L 181.13 345.64
  A 2.00 2.00 0.0 0 0 183.19 347.58
  L 183.30 347.58
  A 6.43 6.00 -1.6 0 0 189.56 341.40
  L 189.54 340.86
  A 6.43 6.00 -1.6 0 0 182.95 335.04
  L 182.84 335.05
  A 2.00 2.00 0.0 0 0 180.89 337.10
  Z"
/>
<path fill="#66100f" d="
  M 198.38 335.44
  Q 197.45 337.86 198.51 340.00
  Q 198.66 340.30 198.54 340.61
  Q 197.57 343.17 198.13 345.79
  A 1.88 1.88 0.0 0 0 200.62 347.16
  L 203.24 346.18
  A 0.40 0.40 0.0 0 1 203.73 346.74
  L 203.45 347.29
  A 1.42 1.41 13.3 0 1 202.21 348.05
  L 195.28 348.06
  Q 194.71 348.06 194.78 347.50
  Q 195.64 340.86 194.50 334.53
  Q 194.40 333.97 194.96 334.04
  Q 198.49 334.44 202.00 333.98
  Q 202.94 333.85 203.18 334.77
  Q 203.39 335.56 202.78 336.02
  Q 202.37 336.32 201.95 336.04
  Q 200.57 335.12 199.09 335.00
  Q 198.57 334.95 198.38 335.44
  Z"
/>
<path fill="#66100f" d="
  M 222.14 341.56
  L 219.38 347.23
  A 0.91 0.90 17.2 0 1 218.43 347.73
  Q 217.62 347.60 217.27 346.83
  Q 215.90 343.80 214.63 341.23
  Q 213.61 339.15 213.26 341.45
  Q 212.76 344.81 213.01 347.87
  Q 213.04 348.21 212.69 348.21
  L 210.54 348.21
  Q 210.21 348.21 210.29 347.88
  Q 212.02 340.94 212.84 334.55
  A 0.59 0.58 87.2 0 1 213.29 334.05
  Q 213.75 333.94 213.97 334.36
  Q 216.22 338.72 218.35 343.30
  A 0.56 0.55 -28.0 0 0 219.14 343.54
  Q 219.27 343.46 219.40 343.38
  Q 219.69 343.21 219.83 342.91
  Q 221.88 338.35 223.99 334.43
  Q 224.20 334.02 224.67 333.92
  A 0.41 0.41 0.0 0 1 225.16 334.25
  Q 226.08 340.06 226.95 345.56
  Q 227.16 346.82 227.98 347.75
  Q 228.51 348.34 227.71 348.27
  L 225.09 348.04
  A 0.83 0.82 88.7 0 1 224.35 347.33
  Q 223.99 344.63 223.87 341.92
  Q 223.72 338.31 222.14 341.56
  Z"
/>
<path fill="#66100f" d="
  M 236.21 335.12
  Q 234.61 334.30 234.16 336.04
  Q 233.52 338.43 234.60 340.19
  Q 234.78 340.48 234.62 340.77
  C 232.99 343.86 233.67 349.37 238.94 346.28
  A 0.55 0.54 75.1 0 1 239.76 346.76
  L 239.76 347.15
  A 0.92 0.91 -89.7 0 1 238.85 348.06
  L 230.76 348.11
  Q 229.84 348.12 230.47 347.44
  C 230.96 346.92 231.27 346.15 231.30 345.44
  Q 231.46 341.28 231.26 336.95
  C 231.23 336.21 230.98 335.24 230.48 334.70
  Q 229.91 334.08 230.75 334.09
  L 238.61 334.13
  Q 240.01 334.13 239.31 335.34
  Q 239.09 335.73 238.66 335.91
  Q 238.16 336.12 237.69 335.88
  L 236.21 335.12
  Z"
/>
<path fill="#66100f" d="
  M 246.04 342.23
  A 0.65 0.65 0.0 0 0 245.16 342.71
  Q 244.62 345.35 245.60 347.54
  Q 245.88 348.15 245.21 348.14
  L 242.53 348.06
  Q 241.85 348.05 241.93 347.37
  Q 242.61 341.82 242.18 336.22
  C 242.14 335.71 242.02 335.10 241.69 334.69
  Q 241.10 333.96 242.03 334.02
  Q 244.71 334.20 247.68 334.09
  C 251.03 333.97 252.88 337.64 250.42 340.01
  Q 249.75 340.65 249.52 341.51
  Q 249.34 342.15 249.78 342.66
  L 254.07 347.52
  A 0.88 0.88 0.0 0 0 255.01 347.76
  Q 256.26 347.31 256.29 345.99
  C 256.35 343.16 256.96 336.93 255.42 334.59
  Q 255.00 333.96 255.76 334.00
  L 259.48 334.23
  Q 260.12 334.27 259.77 334.80
  C 258.33 336.95 258.90 342.74 258.96 345.48
  A 1.31 1.27 20.9 0 0 259.40 346.42
  C 260.95 347.82 263.05 346.94 264.67 346.13
  Q 265.47 345.73 265.17 346.58
  Q 264.91 347.32 264.42 347.82
  Q 264.08 348.18 263.58 348.16
  C 260.40 348.05 256.88 347.79 253.69 348.16
  C 249.39 348.65 249.17 343.47 246.04 342.23
  Z
  M 245.00 335.80
  L 245.00 340.78
  A 0.81 0.81 0.0 0 0 245.81 341.59
  L 246.06 341.59
  A 3.03 2.82 -90.0 0 0 248.88 338.56
  L 248.88 338.02
  A 3.03 2.82 90.0 0 0 246.06 334.99
  L 245.81 334.99
  A 0.81 0.81 0.0 0 0 245.00 335.80
  Z"
/>
<path fill="#66100f" d="
  M 235.40 340.14
  L 238.53 339.89
  A 0.33 0.33 0.0 0 1 238.89 340.21
  L 238.93 341.87
  A 0.33 0.33 0.0 0 1 238.46 342.18
  L 235.29 340.78
  A 0.33 0.33 0.0 0 1 235.40 340.14
  Z"
/>
<path fill="#66100f" d="
  M 202.80 341.78
  A 0.20 0.20 0.0 0 1 202.56 341.94
  L 202.38 341.90
  A 3.55 0.78 11.6 0 1 199.06 340.42
  L 199.08 340.31
  A 3.55 0.78 11.6 0 1 202.72 340.25
  L 202.90 340.29
  A 0.20 0.20 0.0 0 1 203.06 340.53
  L 202.80 341.78
  Z"
/>
<path fill="#66100f" d="
  M 80.74 364.93
  Q 80.03 364.02 79.17 364.80
  L 74.84 368.76
  Q 73.84 369.68 74.67 370.76
  L 76.43 373.05
  Q 76.57 373.23 76.41 373.39
  L 76.23 373.57
  A 0.46 0.45 -44.6 0 1 75.58 373.57
  L 67.75 365.54
  A 0.37 0.37 0.0 0 1 67.75 365.04
  L 67.97 364.80
  A 0.38 0.38 0.0 0 1 68.50 364.77
  L 70.49 366.61
  A 0.86 0.86 0.0 0 0 71.67 366.59
  L 85.44 353.22
  A 0.94 0.94 0.0 0 0 85.36 351.80
  Q 84.13 350.85 83.94 349.63
  Q 83.76 348.48 84.59 349.30
  Q 88.36 353.02 91.80 356.64
  C 99.89 365.17 88.12 374.44 80.74 364.93
  Z
  M 87.65 356.44
  L 81.76 362.03
  A 1.41 1.41 0.0 0 0 81.71 364.02
  L 82.95 365.33
  A 4.17 4.03 46.5 0 0 88.75 365.58
  L 90.83 363.60
  A 4.17 4.03 46.5 0 0 90.89 357.80
  L 89.65 356.49
  A 1.41 1.41 0.0 0 0 87.65 356.44
  Z"
/>
<path fill="#2f1313" d="
  M 366.48 356.84
  C 366.88 354.91 367.46 352.81 369.54 352.08
  C 371.03 351.56 372.12 352.89 372.15 354.27
  Q 372.20 355.99 370.54 355.53
  L 369.60 355.27
  A 1.61 1.61 0.0 0 0 367.61 357.23
  C 368.74 361.53 374.02 365.56 377.17 368.46
  A 1.23 1.23 0.0 0 0 378.76 368.52
  L 380.47 367.17
  Q 380.64 367.04 380.77 367.20
  L 380.95 367.41
  A 0.47 0.47 0.0 0 1 380.93 368.03
  L 374.86 374.49
  Q 374.72 374.64 374.56 374.50
  L 374.36 374.33
  Q 374.25 374.24 374.33 374.13
  Q 375.19 372.81 375.49 371.58
  A 0.76 0.74 -62.1 0 0 375.27 370.84
  L 364.49 361.03
  A 1.41 1.40 -45.2 0 0 362.59 361.04
  L 361.54 362.01
  Q 361.15 362.37 360.80 361.97
  Q 360.59 361.74 360.80 361.51
  Q 362.27 359.98 363.49 358.40
  Q 363.80 358.00 364.30 357.91
  L 365.62 357.68
  Q 366.33 357.55 366.48 356.84
  Z"
/>
<path fill="#2f1313" d="
  M 365.9220 383.3596
  A 10.12 8.12 49.8 0 1 353.1880 380.8711
  A 10.12 8.12 49.8 0 1 352.8580 367.9004
  A 10.12 8.12 49.8 0 1 365.5920 370.3889
  A 10.12 8.12 49.8 0 1 365.9220 383.3596
  Z
  M 359.8616 369.3179
  A 4.22 4.22 0.0 0 0 353.9112 368.8601
  L 353.5923 369.1334
  A 4.22 4.22 0.0 0 0 353.1345 375.0838
  L 358.9784 381.9021
  A 4.22 4.22 0.0 0 0 364.9288 382.3599
  L 365.2477 382.0866
  A 4.22 4.22 0.0 0 0 365.7055 376.1362
  L 359.8616 369.3179
  Z"
/>
<path fill="#66100f" d="
  M 90.3458 387.1455
  A 10.08 8.17 127.7 0 1 90.0457 374.1738
  A 10.08 8.17 127.7 0 1 102.6742 371.1945
  A 10.08 8.17 127.7 0 1 102.9743 384.1662
  A 10.08 8.17 127.7 0 1 90.3458 387.1455
  Z
  M 102.7910 378.3509
  A 4.23 4.23 0.0 0 0 102.1138 372.4073
  L 101.7851 372.1458
  A 4.23 4.23 0.0 0 0 95.8414 372.8230
  L 90.1890 379.9291
  A 4.23 4.23 0.0 0 0 90.8662 385.8727
  L 91.1949 386.1342
  A 4.23 4.23 0.0 0 0 97.1386 385.4570
  L 102.7910 378.3509
  Z"
/>
<path fill="#2f1313" d="
  M 340.64 379.25
  L 338.69 380.15
  Q 338.43 380.27 338.30 380.02
  L 338.17 379.79
  Q 338.12 379.69 338.21 379.63
  L 345.78 374.27
  Q 345.92 374.17 346.03 374.29
  L 346.24 374.53
  A 0.33 0.32 50.3 0 1 346.20 375.00
  Q 344.90 375.98 344.56 377.14
  Q 344.39 377.70 344.73 378.18
  Q 349.86 385.44 354.75 392.68
  C 357.25 396.38 356.81 400.39 351.78 401.28
  Q 350.20 401.56 349.72 400.03
  Q 349.47 399.23 349.81 398.39
  A 0.78 0.78 0.0 0 1 350.85 397.97
  Q 351.83 398.40 352.61 399.21
  A 0.94 0.94 0.0 0 0 354.19 398.78
  Q 354.47 397.69 353.69 396.56
  Q 347.93 388.37 341.92 379.60
  A 1.04 1.03 -29.5 0 0 340.64 379.25
  Z"
/>
<path fill="#66100f" d="
  M 115.87 382.41
  Q 118.63 382.07 120.70 383.48
  C 122.59 384.77 122.07 387.66 119.71 387.98
  A 1.31 1.31 0.0 0 1 118.22 386.57
  L 118.37 384.73
  A 0.85 0.85 0.0 0 0 117.83 383.86
  Q 116.96 383.54 116.07 383.51
  A 1.18 1.16 -68.6 0 0 115.17 383.91
  C 114.11 385.11 112.74 385.89 111.88 387.25
  Q 109.39 391.17 106.80 395.25
  A 0.92 0.91 -52.0 0 0 106.94 396.41
  L 108.86 398.22
  Q 108.94 398.30 108.87 398.39
  L 108.70 398.63
  A 0.39 0.37 33.6 0 1 108.20 398.72
  L 101.00 394.27
  Q 99.20 393.16 101.22 393.40
  Q 101.45 393.43 102.30 393.89
  A 1.56 1.56 0.0 0 0 104.37 393.34
  L 111.88 381.12
  Q 112.34 380.37 111.70 379.76
  L 110.21 378.33
  A 0.26 0.26 0.0 0 1 110.19 377.97
  L 110.38 377.74
  A 0.38 0.38 0.0 0 1 110.88 377.67
  L 114.53 380.12
  Q 114.97 380.42 115.12 380.93
  Q 115.23 381.33 115.20 381.75
  A 0.61 0.60 89.3 0 0 115.87 382.41
  Z"
/>
<path fill="#2f1313" d="
  M 332.32 392.14
  Q 330.04 393.45 331.75 395.46
  Q 334.20 398.30 334.67 398.85
  A 4.35 3.88 57.4 0 0 339.33 400.16
  Q 343.33 398.50 342.71 393.26
  Q 342.68 393.02 342.92 393.00
  L 343.20 392.97
  A 0.51 0.50 -8.3 0 1 343.74 393.37
  C 345.47 401.39 336.23 404.76 330.90 399.70
  Q 326.81 395.81 326.77 390.60
  C 326.72 382.94 335.23 380.02 339.86 386.34
  A 1.15 1.15 0.0 0 1 339.50 388.01
  L 332.32 392.14
  Z
  M 331.31 391.15
  L 336.19 388.09
  A 1.14 1.14 0.0 0 0 336.55 386.52
  L 336.47 386.39
  A 4.24 3.90 58.0 0 0 330.91 384.86
  L 330.71 384.98
  A 4.24 3.90 58.0 0 0 329.65 390.65
  L 329.73 390.78
  A 1.14 1.14 0.0 0 0 331.31 391.15
  Z"
/>
<path fill="#66100f" d="
  M 132.91 408.06
  C 131.74 408.65 130.64 409.62 129.27 409.54
  C 124.39 409.26 124.15 404.75 125.56 401.19
  Q 127.50 396.29 130.02 391.37
  A 1.08 1.06 -61.0 0 0 129.63 389.97
  L 127.87 388.89
  Q 127.49 388.65 127.70 388.26
  L 127.82 388.04
  Q 127.89 387.92 128.01 387.97
  L 132.56 390.03
  A 1.23 1.23 0.0 0 1 133.19 391.63
  Q 130.71 397.58 127.75 404.06
  C 126.66 406.44 127.64 409.04 130.69 408.07
  C 135.97 406.41 137.61 400.18 139.91 395.63
  Q 140.26 394.93 139.62 394.48
  L 137.65 393.08
  A 0.37 0.35 22.7 0 1 137.50 392.74
  L 137.55 392.42
  A 0.34 0.34 0.0 0 1 138.09 392.20
  Q 140.17 393.71 142.55 394.33
  A 1.02 1.02 0.0 0 1 143.22 395.74
  L 136.68 410.43
  Q 136.41 411.03 137.02 411.28
  Q 137.60 411.51 138.17 411.79
  Q 140.09 412.74 137.96 412.97
  Q 135.92 413.18 134.26 411.67
  A 1.45 1.45 0.0 0 1 133.84 410.21
  Q 134.13 409.21 133.68 408.32
  A 0.58 0.57 63.2 0 0 132.91 408.06
  Z"
/>
<path fill="#2f1313" d="
  M 300.96 400.43
  A 0.46 0.46 0.0 0 0 301.77 400.24
  C 302.65 396.05 307.08 393.41 310.28 397.12
  A 0.85 0.85 0.0 0 0 311.75 396.75
  C 312.06 395.38 312.31 393.98 313.34 392.98
  C 316.78 389.62 320.61 392.27 322.09 396.09
  Q 324.11 401.26 326.06 406.17
  A 0.99 0.99 0.0 0 0 326.94 406.81
  Q 328.02 406.88 329.23 406.38
  A 0.32 0.31 65.9 0 1 329.64 406.54
  L 329.74 406.77
  Q 329.82 406.96 329.63 407.04
  L 301.16 418.38
  Q 300.98 418.45 300.90 418.28
  L 300.78 418.04
  Q 300.64 417.75 300.94 417.63
  Q 302.29 417.05 303.06 416.05
  A 0.95 0.95 0.0 0 0 303.18 415.08
  Q 300.31 408.54 297.86 401.88
  Q 297.64 401.27 297.04 401.06
  Q 295.81 400.62 294.13 401.50
  Q 294.07 401.53 294.04 401.47
  L 293.89 401.18
  A 0.40 0.40 0.0 0 1 294.09 400.62
  L 298.61 398.74
  A 1.04 1.03 -31.3 0 1 299.81 399.03
  L 300.96 400.43
  Z
  M 318.31 394.97
  A 2.72 2.72 0.0 0 0 313.07 395.82
  L 312.78 400.62
  A 2.72 2.72 0.0 0 0 312.93 401.67
  L 315.44 408.91
  A 2.72 2.72 0.0 0 0 318.92 410.58
  L 321.19 409.78
  A 2.72 2.72 0.0 0 0 322.81 406.20
  L 318.31 394.97
  Z
  M 308.28 398.94
  A 2.66 2.66 0.0 0 0 303.18 399.47
  L 302.53 403.27
  A 2.66 2.66 0.0 0 0 302.63 404.57
  L 305.44 412.93
  A 2.66 2.66 0.0 0 0 308.87 414.58
  L 311.24 413.72
  A 2.66 2.66 0.0 0 0 312.79 410.23
  L 308.28 398.94
  Z"
/>
<path fill="#66100f" d="
  M 153.11 399.73
  Q 152.71 402.47 154.98 400.85
  Q 157.03 399.37 159.26 399.89
  C 163.39 400.85 163.83 404.22 162.79 407.69
  Q 161.14 413.18 159.44 417.94
  A 1.37 1.37 0.0 0 0 160.14 419.63
  L 161.94 420.50
  Q 162.08 420.56 162.02 420.71
  L 161.90 420.98
  Q 161.77 421.28 161.47 421.17
  Q 157.31 419.62 152.93 418.48
  A 0.08 0.08 0.0 0 1 152.87 418.38
  L 152.94 418.12
  Q 153.03 417.77 153.38 417.86
  Q 154.81 418.25 155.97 417.63
  Q 156.38 417.41 156.52 416.96
  Q 158.35 410.99 160.42 404.67
  C 160.98 402.95 160.27 401.21 158.25 401.18
  C 151.94 401.09 149.90 410.02 148.56 414.69
  Q 148.43 415.11 148.71 415.45
  Q 149.54 416.48 150.73 417.10
  Q 150.78 417.12 150.76 417.18
  L 150.64 417.43
  Q 150.57 417.58 150.41 417.53
  L 141.90 414.84
  Q 141.83 414.82 141.85 414.75
  L 141.90 414.50
  Q 141.98 414.13 142.36 414.20
  Q 143.73 414.45 144.87 414.12
  Q 145.46 413.94 145.65 413.35
  L 149.95 399.84
  A 1.13 1.12 35.3 0 0 149.77 398.81
  Q 149.06 397.88 147.75 397.54
  Q 147.40 397.45 147.50 397.10
  L 147.57 396.85
  Q 147.64 396.62 147.87 396.69
  L 152.62 398.21
  Q 153.12 398.37 153.15 398.89
  Q 153.17 399.31 153.11 399.73
  Z"
/>
<path fill="#2f1313" d="
  M 282.2883 423.5453
  A 10.09 8.18 76.6 0 1 271.9927 415.6257
  A 10.09 8.18 76.6 0 1 277.6117 403.9147
  A 10.09 8.18 76.6 0 1 287.9073 411.8343
  A 10.09 8.18 76.6 0 1 282.2883 423.5453
  Z
  M 282.0504 422.7352
  A 9.19 4.81 77.3 0 0 284.7223 412.7125
  A 9.19 4.81 77.3 0 0 278.0096 404.8048
  A 9.19 4.81 77.3 0 0 275.3377 414.8275
  A 9.19 4.81 77.3 0 0 282.0504 422.7352
  Z"
/>
<path fill="#66100f" d="
  M 190.72 410.55
  A 0.61 0.60 53.6 0 0 191.77 410.71
  Q 193.42 408.55 195.77 408.15
  C 201.27 407.22 201.83 412.14 201.18 416.07
  Q 200.30 421.35 199.55 426.02
  A 1.01 1.01 0.0 0 0 200.28 427.15
  L 202.65 427.78
  Q 202.83 427.83 202.79 428.01
  L 202.70 428.41
  Q 202.65 428.66 202.40 428.62
  L 171.61 423.73
  A 0.17 0.16 -77.4 0 1 171.48 423.52
  L 171.56 423.24
  Q 171.66 422.88 172.01 423.01
  C 173.38 423.51 175.19 423.21 175.40 421.49
  Q 176.22 414.51 177.53 407.78
  A 1.25 1.24 -73.1 0 0 176.80 406.40
  Q 175.77 405.96 174.75 405.59
  Q 174.52 405.51 174.42 405.28
  Q 174.40 405.23 174.42 405.17
  Q 174.49 404.96 174.72 404.98
  Q 177.53 405.30 180.15 405.66
  A 0.81 0.81 0.0 0 1 180.83 406.63
  Q 180.64 407.50 180.76 408.39
  Q 180.87 409.16 181.49 408.67
  C 183.86 406.78 185.78 404.89 188.95 407.20
  C 190.09 408.03 190.25 409.28 190.72 410.55
  Z
  M 187.90 410.91
  A 2.77 2.77 0.0 0 0 182.86 408.93
  L 180.32 412.74
  A 2.77 2.77 0.0 0 0 179.90 413.77
  L 178.43 421.58
  A 2.77 2.77 0.0 0 0 181.05 424.86
  L 183.20 424.94
  A 2.77 2.77 0.0 0 0 186.04 422.60
  L 187.90 410.91
  Z
  M 198.51 412.30
  A 2.65 2.65 0.0 0 0 193.88 410.20
  L 191.44 413.04
  A 2.65 2.65 0.0 0 0 190.85 414.23
  L 189.00 423.09
  A 2.65 2.65 0.0 0 0 191.29 426.27
  L 193.89 426.57
  A 2.65 2.65 0.0 0 0 196.82 424.31
  L 198.51 412.30
  Z"
/>
<path fill="#2f1313" d="
  M 254.01 426.68
  A 0.98 0.97 -12.7 0 0 254.69 425.62
  L 252.74 411.12
  Q 252.55 409.69 251.11 409.81
  L 249.28 409.97
  Q 248.96 410.00 249.04 409.69
  L 249.14 409.30
  A 0.24 0.24 0.0 0 1 249.34 409.12
  Q 253.17 408.80 256.57 408.16
  Q 260.16 407.49 262.51 408.31
  C 268.22 410.28 269.87 417.04 267.66 422.24
  C 266.22 425.63 262.86 426.95 259.25 427.17
  Q 255.58 427.39 251.89 428.15
  Q 251.74 428.18 251.70 428.03
  L 251.63 427.75
  A 0.31 0.30 75.3 0 1 251.84 427.38
  L 254.01 426.68
  Z
  M 255.95 411.09
  L 257.70 424.56
  A 1.81 1.81 0.0 0 0 259.73 426.12
  L 260.52 426.02
  A 6.17 5.69 82.6 0 0 265.37 419.17
  L 264.74 414.35
  A 6.17 5.69 82.6 0 0 258.31 408.96
  L 257.51 409.06
  A 1.81 1.81 0.0 0 0 255.95 411.09
  Z"
/>
<path fill="#2f1313" d="
  M 217.60 426.45
  L 215.28 428.49
  A 2.16 2.14 -70.3 0 1 214.19 429.01
  C 209.01 429.93 207.66 426.46 207.75 422.07
  Q 207.85 417.16 208.53 412.57
  A 1.81 1.80 -82.4 0 0 206.96 410.51
  L 205.27 410.31
  Q 204.99 410.28 205.04 410.00
  L 205.15 409.44
  Q 205.18 409.30 205.31 409.31
  L 211.15 409.68
  A 0.57 0.57 0.0 0 1 211.69 410.28
  Q 211.16 418.01 211.07 425.45
  Q 211.05 427.28 212.75 427.87
  Q 213.25 428.04 213.74 427.83
  Q 216.29 426.71 217.29 424.71
  Q 219.47 420.30 218.93 412.03
  A 0.87 0.86 -77.2 0 0 218.49 411.33
  Q 217.54 410.81 216.30 410.74
  Q 216.00 410.72 216.00 410.42
  L 216.00 410.15
  Q 216.00 409.97 216.18 409.97
  L 221.72 410.18
  Q 222.48 410.21 222.44 410.97
  L 221.62 427.06
  Q 221.60 427.45 221.91 427.69
  Q 222.73 428.31 224.02 427.91
  Q 224.37 427.80 224.44 428.16
  L 224.51 428.48
  A 0.32 0.32 0.0 0 1 224.27 428.85
  L 221.57 429.52
  A 2.11 2.11 0.0 0 1 219.11 428.27
  L 218.45 426.66
  Q 218.17 425.96 217.60 426.45
  Z"
/>
<path fill="#2f1313" d="
  M 234.40 413.05
  C 235.99 409.20 241.29 407.64 243.81 411.42
  Q 245.04 413.27 245.11 416.39
  Q 245.22 421.24 245.36 425.96
  A 1.56 1.56 0.0 0 0 247.31 427.43
  Q 248.05 427.24 248.60 427.82
  Q 249.36 428.60 248.27 428.64
  L 239.68 428.88
  Q 239.56 428.89 239.56 428.77
  L 239.55 428.50
  A 0.41 0.41 0.0 0 1 239.96 428.08
  Q 242.59 428.06 242.27 425.38
  Q 241.61 419.81 241.77 414.15
  C 241.86 411.06 239.02 409.81 236.78 411.95
  Q 233.74 414.85 233.88 419.58
  Q 233.98 423.28 234.10 426.87
  Q 234.11 427.39 234.54 427.69
  Q 235.48 428.34 236.69 428.50
  A 0.29 0.29 0.0 0 1 236.94 428.84
  L 236.89 429.13
  Q 236.85 429.34 236.64 429.31
  C 234.75 429.08 231.06 428.65 229.46 429.36
  Q 228.98 429.58 228.54 429.49
  Q 226.31 429.08 228.51 428.53
  Q 229.17 428.37 229.82 428.26
  A 1.24 1.24 0.0 0 0 230.85 426.99
  L 230.29 412.30
  Q 230.27 411.73 229.76 411.47
  Q 228.74 410.96 227.44 411.18
  A 0.40 0.40 0.0 0 1 227.00 410.66
  L 227.12 410.30
  Q 227.16 410.17 227.30 410.17
  L 232.17 410.17
  A 0.96 0.95 -1.9 0 1 233.13 411.06
  Q 233.21 412.12 233.62 413.06
  Q 234.01 413.98 234.40 413.05
  Z"
/>
</svg>
